<svg width="50" height="50" viewBox="0 0 50 50" fill="none" xmlns="http://www.w3.org/2000/svg">
<path fill-rule="evenodd" clip-rule="evenodd" d="M24.9045 49.9999L24.9269 50H24.9191L24.9045 49.9999ZM25.0809 50H25.0731L25.0955 49.9999L25.0809 50ZM24.8281 49.9995L24.8522 49.9996H24.8384L24.8281 49.9995V49.9995ZM25.1616 49.9996H25.1478L25.1719 49.9995L25.1616 49.9996ZM24.7545 49.9989L24.7706 49.999L24.7577 49.9989H24.7545ZM25.2423 49.9989L25.2294 49.999L25.2455 49.9989H25.2423ZM25.3229 49.998L25.3173 49.9981L25.3391 49.9979L25.3229 49.998ZM24.6609 49.9979L24.6827 49.9981L24.6771 49.998L24.6609 49.9979V49.9979ZM25.4035 49.9969L25.3903 49.9971L25.4172 49.9967L25.4035 49.9969ZM24.5828 49.9967L24.6097 49.9971L24.5965 49.9969L24.5828 49.9967V49.9967ZM25.484 49.9955L25.4662 49.9958L25.491 49.9953L25.484 49.9955ZM24.509 49.9953L24.5338 49.9958L24.516 49.9955L24.509 49.9953ZM24.4175 49.9935L24.4395 49.9939L24.4355 49.9938L24.4175 49.9935ZM25.5645 49.9938L25.5605 49.9939L25.5825 49.9935L25.5645 49.9938ZM24.3372 49.9914L24.3674 49.9922L24.3552 49.9919L24.3372 49.9914ZM25.6448 49.9919L25.6326 49.9922L25.6628 49.9914L25.6448 49.9919ZM25.7252 49.9897L25.7056 49.9903L25.7364 49.9895L25.7252 49.9897V49.9897ZM24.2636 49.9895L24.2944 49.9903L24.2748 49.9897L24.2636 49.9895V49.9895ZM24.1933 49.9873L24.2152 49.988L24.1945 49.9873L24.1756 49.9867L24.1933 49.9873V49.9873ZM25.8055 49.9873L25.7848 49.988L25.8067 49.9873L25.8244 49.9867L25.8055 49.9873ZM25.8856 49.9847L25.8747 49.9851L25.9084 49.9839L25.8856 49.9847ZM24.0916 49.9839L24.1253 49.9851L24.1144 49.9847L24.0916 49.9839ZM24.0185 49.9812L24.0538 49.9824L24.0342 49.9817L24.0185 49.9812ZM25.9658 49.9817L25.9462 49.9824L25.9815 49.9812L25.9658 49.9817ZM23.9467 49.9782L23.9812 49.9797L23.9542 49.9786L23.9467 49.9782V49.9782ZM26.0458 49.9786L26.0188 49.9797L26.0533 49.9782L26.0458 49.9786V49.9786ZM23.8461 49.9738L23.8832 49.9755L23.8741 49.9752L23.8461 49.9738ZM26.1259 49.9752L26.1168 49.9755L26.1539 49.9738L26.1259 49.9752ZM23.7739 49.9705L23.8124 49.9723L23.7942 49.9715L23.7739 49.9705ZM26.2058 49.9715L26.1876 49.9723L26.2261 49.9705L26.2058 49.9715ZM23.7028 49.9669L23.7416 49.9688L23.7144 49.9676L23.7028 49.9669ZM26.2856 49.9676L26.2584 49.9688L26.2972 49.9669L26.2856 49.9676ZM26.3655 49.9634L26.3302 49.9652L26.3615 49.9636L26.3984 49.9615L26.3655 49.9634ZM23.6385 49.9636L23.6698 49.9652L23.6345 49.9634L23.6016 49.9615L23.6385 49.9636ZM26.4452 49.9589L26.4296 49.9598L26.4692 49.9575L26.4452 49.9589ZM23.5308 49.9575L23.5704 49.9598L23.5548 49.9589L23.5308 49.9575ZM23.4603 49.9533L23.4998 49.9557L23.4751 49.9543L23.4603 49.9533V49.9533ZM26.5249 49.9543L26.5002 49.9557L26.5397 49.9533L26.5249 49.9543ZM23.393 49.9491L23.4286 49.9514L23.3954 49.9493L23.362 49.9472L23.393 49.9491ZM26.6046 49.9493L26.5714 49.9514L26.607 49.9491L26.638 49.9472L26.6046 49.9493V49.9493ZM26.6841 49.9441L26.6722 49.9449L26.71 49.9424L26.6841 49.9441V49.9441ZM23.29 49.9424L23.3278 49.9449L23.3159 49.9441L23.29 49.9424V49.9424ZM23.2196 49.9375L23.2567 49.9401L23.2364 49.9388L23.2196 49.9375ZM26.7636 49.9388L26.7433 49.9401L26.7804 49.9375L26.7636 49.9388V49.9388ZM23.1494 49.9325L23.1835 49.935L23.157 49.9331L23.1494 49.9325ZM26.843 49.9331L26.8165 49.935L26.8506 49.9325L26.843 49.9331ZM23.055 49.9254L23.0849 49.9276L23.0776 49.9271L23.055 49.9254V49.9254ZM26.9224 49.9271L26.9151 49.9276L26.945 49.9254L26.9224 49.9271V49.9271ZM27.0016 49.921L26.9873 49.9221L27.0177 49.9196L27.0016 49.921V49.921ZM22.9823 49.9196L23.0127 49.9221L22.9984 49.921L22.9823 49.9196V49.9196ZM22.9115 49.9139L22.9373 49.916L22.9191 49.9146L22.9115 49.9139ZM27.0809 49.9146L27.0627 49.916L27.0885 49.9139L27.0809 49.9146V49.9146ZM22.8336 49.9073L22.8413 49.908L22.84 49.9079L22.8336 49.9073V49.9073ZM27.16 49.9079L27.1587 49.908L27.1664 49.9073L27.16 49.9079V49.9079ZM27.2391 49.901L27.232 49.9016L27.2497 49.9L27.2391 49.901V49.901ZM22.7503 49.9L22.768 49.9016L22.7609 49.901L22.7503 49.9V49.9ZM22.6771 49.8934L22.6902 49.8946L22.682 49.8938L22.6771 49.8934ZM27.318 49.8938L27.3098 49.8946L27.3229 49.8934L27.318 49.8938ZM21.0938 49.6961C9.14854 47.8186 0 37.4692 0 25C0 11.2022 11.2021 0 25 0C38.7979 0 50 11.2022 50 25C50 37.4692 40.8515 47.8186 28.9062 49.6961V32.2266H34.7314L35.8398 25H28.9062V20.3105C28.9062 18.3334 29.8748 16.4063 32.9804 16.4063H36.1328V10.2539C36.1328 10.2539 33.2719 9.76564 30.5366 9.76564C24.8261 9.76564 21.0938 13.2266 21.0938 19.4922V25H14.7461V32.2266H21.0938V49.6961Z" fill="white"/>
</svg>
