<svg width="50" height="50" viewBox="0 0 50 50" fill="none" xmlns="http://www.w3.org/2000/svg">
<path d="M25 0C11.1929 0 0 11.1929 0 25C0 38.8071 11.1929 50 25 50C38.8071 50 50 38.8071 50 25C50 11.1929 38.8071 0 25 0ZM37.6582 22.6936C35.0035 22.6936 32.4205 21.832 30.4316 20.3742L30.4158 30.2863C30.4142 32.123 29.8524 33.9155 28.8056 35.4246C27.7587 36.9337 26.2765 38.0877 24.5567 38.7325C22.837 39.3773 20.9615 39.4823 19.1805 39.0335C17.3995 38.5847 15.7977 37.6034 14.5889 36.2206C13.3802 34.8378 12.6218 33.1192 12.4152 31.2942C12.2085 29.4692 12.5633 27.6246 13.4323 26.0065C14.3012 24.3884 15.643 23.0737 17.2785 22.238C18.914 21.4023 20.7655 21.0853 22.5859 21.3292V26.1969C21.7272 25.9432 20.8104 25.9663 19.9656 26.2629C19.1207 26.5596 18.3908 27.1147 17.8791 27.8496C17.3675 28.5844 17.1003 29.4617 17.1152 30.357C17.1302 31.2522 17.4267 32.1201 17.9627 32.8374C18.4986 33.5547 19.2468 34.085 20.1011 34.3532C20.9554 34.6214 21.8724 34.6138 22.7222 34.3315C23.5719 34.0492 24.3112 33.5065 24.8352 32.7804C25.3592 32.0544 25.6412 31.1817 25.6414 30.2863V10.6771H30.6487C30.6487 11.5975 30.83 12.5089 31.1823 13.3593C31.5345 14.2097 32.0508 14.9824 32.7017 15.6333C33.3525 16.2841 34.1252 16.8004 34.9756 17.1526C35.826 17.5049 36.7375 17.6861 37.6579 17.6861L37.6582 22.6936Z" fill="white"/>
</svg>
