<svg width="50" height="50" viewBox="0 0 50 50" fill="none" xmlns="http://www.w3.org/2000/svg">
<path fill-rule="evenodd" clip-rule="evenodd" d="M25 0C38.7979 0 50 11.2021 50 25C50 38.7979 38.7979 50 25 50C11.2021 50 0 38.7979 0 25C0 11.2021 11.2021 0 25 0ZM39.9722 17.4783C39.6128 16.1337 38.554 15.075 37.2095 14.7156C34.7722 14.0625 25 14.0625 25 14.0625C25 14.0625 15.2278 14.0625 12.7905 14.7156C11.4463 15.075 10.3872 16.1337 10.0278 17.4783C9.375 19.9153 9.375 25.0002 9.375 25.0002C9.375 25.0002 9.375 30.0849 10.0278 32.5217C10.3872 33.8663 11.4463 34.9254 12.7905 35.2847C15.2278 35.9375 25 35.9375 25 35.9375C25 35.9375 34.7722 35.9375 37.2095 35.2847C38.554 34.9254 39.6128 33.8663 39.9722 32.5217C40.625 30.0849 40.625 25.0002 40.625 25.0002C40.625 25.0002 40.625 19.9153 39.9722 17.4783ZM21.8749 29.6878V20.3126L29.9937 25.0002L21.8749 29.6878V29.6878Z" fill="white"/>
</svg>
